<?xml version="1.0" encoding="UTF-8"?>
<svg width="420" height="280" viewBox="0 0 420 280" xmlns="http://www.w3.org/2000/svg" role="img" aria-labelledby="title desc">
    <title id="title">Logotipo Seguros Bolívar</title>
    <desc id="desc">Composición con un recuadro amarillo y una silueta verde que representa a una familia sobre el texto Seguros Bolívar.</desc>
    <rect x="110" y="20" width="200" height="200" rx="16" fill="#FFC918" />
    <path d="M196 68c13-6.8 29.3-5.4 41.2 3.8 11.9 9.1 18.1 24.7 15.7 39.6-12.6 5.4-26.6 7.2-40.1 5.2 6.2 4.3 10.7 10.5 13 17.6 3.1 9.6 1.6 20.7-4 29.4-9.4 15.2-29.2 20.7-45.1 13.2-2.1-1-4.1-2.2-6-3.6-4.2 7.6-11.8 12.9-20.1 14.1-4.6 0.7-9.3 0.1-13.6-1.8 7.6-11.3 10.8-25.4 8.7-39-1.9-12.5-8-24.3-17.3-33.1 8.3-4.2 18-5.1 26.9-2.4 9 2.7 16.8 8.8 21.6 16.7 2.9-12.3 11-22.9 22.1-29.2 11-6.3 24.1-7.9 36.2-4.6-8.8-5.8-15.4-14.8-18.2-25z" fill="none" stroke="#0B613E" stroke-width="8" stroke-linecap="round" stroke-linejoin="round" />
    <path d="M205 150c7.6-4.6 13.7-11.8 16.8-20 8.3 7.3 11.4 19.6 7 29.8-4.9 11.3-18 17.6-30 14.2-12-3.4-20.2-15.9-18.1-28.3 1.3-7.4 5.9-14 12.2-18.1" fill="none" stroke="#0B613E" stroke-width="7" stroke-linecap="round" stroke-linejoin="round" />
    <text x="210" y="242" text-anchor="middle" font-family="'Times New Roman', serif" font-size="30" letter-spacing="7" fill="#0B613E">SEGUROS</text>
    <text x="210" y="272" text-anchor="middle" font-family="'Times New Roman', serif" font-size="44" letter-spacing="9" fill="#0B613E">BOLÍVAR</text>
</svg>
